<?xml version="1.0" encoding="UTF-8" standalone="no"?>
<svg
   xmlns:dc="http://purl.org/dc/elements/1.1/"
   xmlns:cc="http://creativecommons.org/ns#"
   xmlns:rdf="http://www.w3.org/1999/02/22-rdf-syntax-ns#"
   xmlns:svg="http://www.w3.org/2000/svg"
   xmlns="http://www.w3.org/2000/svg"
   viewBox="0 0 442.41333 331.10666"
   height="331.10666"
   width="442.41333"
   xml:space="preserve"
   id="svg2"
   version="1.1"><metadata
     id="metadata8"><rdf:RDF><cc:Work
         rdf:about=""><dc:format>image/svg+xml</dc:format><dc:type
           rdf:resource="http://purl.org/dc/dcmitype/StillImage" /></cc:Work></rdf:RDF></metadata><defs
     id="defs6" /><g
     transform="matrix(1.3333333,0,0,-1.3333333,0,331.10667)"
     id="g10"><g
       transform="scale(0.1)"
       id="g12"><path
         id="path14"
         style="fill:#4a261d;fill-opacity:1;fill-rule:nonzero;stroke:none"
         d="m 2428.59,1052.37 c 62.63,510.26 -325.94,977.83 -867.93,1044.38 C 1018.66,2163.31 528.5,1803.62 465.848,1293.36 403.203,783.121 791.785,315.539 1333.78,248.988 1875.77,182.441 2365.94,542.121 2428.59,1052.37" /><path
         id="path16"
         style="fill:none;stroke:#4a261d;stroke-width:5.90367985;stroke-linecap:butt;stroke-linejoin:miter;stroke-miterlimit:4;stroke-dasharray:none;stroke-opacity:1"
         d="m 2428.59,1052.37 c 62.63,510.26 -325.94,977.83 -867.93,1044.38 C 1018.66,2163.31 528.5,1803.62 465.848,1293.36 403.203,783.121 791.785,315.539 1333.78,248.988 1875.77,182.441 2365.94,542.121 2428.59,1052.37 Z" /><path
         id="path18"
         style="fill:#fbce28;fill-opacity:1;fill-rule:nonzero;stroke:none"
         d="m 1440.73,2074.97 c 514.38,-15.12 754.53,-302.57 862.33,-491.67 107.79,-189.11 179.64,-563.54 -49.17,-885.019 -228.82,-321.472 -525.72,-425.492 -832.06,-425.492 -306.35,0 -729.951,172.09 -890.693,631.621 -160.739,459.53 147.504,881.23 381.996,1011.72 109.677,62.4 272.307,156.95 527.597,158.84" /><path
         id="path20"
         style="fill:#4a261d;fill-opacity:1;fill-rule:nonzero;stroke:none"
         d="m 1609,945.082 c 0,0 -3.72,-85.352 124.31,-72.363 128.03,12.992 161.42,163.271 161.42,163.271 0,0 15.97,-171.568 -142.87,-213.381 -105.76,-27.82 -144.71,22.27 -144.71,22.27 0,0 -55.67,-29.68 -109.48,5.57 -53.8,35.262 -48.24,98.332 18.56,141.012 0,0 -59.38,-120.602 74.22,-107.609 0,0 -16.71,37.097 18.55,61.23" /><path
         id="path22"
         style="fill:#4a261d;fill-opacity:1;fill-rule:nonzero;stroke:none"
         d="m 1935.43,1344.65 c 0,0 -45.3,12.84 -79.79,9.28 -53.81,-5.56 -102.04,-53.81 -102.04,-53.81 0,0 53.81,81.64 144.73,81.64 51.95,0 76.06,-27.83 76.06,-27.83 0,0 66.8,1.85 77.92,-7.42 0,0 141.03,59.37 191.12,153.99 0,0 11.14,-55.65 -165.14,-166.99 0,0 5.58,-1.85 13,-14.84 l -27.83,-14.84 c 0,0 -128.03,33.4 -283.88,-27.83 0,0 92.76,61.23 155.85,68.65" /><path
         id="path24"
         style="fill:#4a261d;fill-opacity:1;fill-rule:nonzero;stroke:none"
         d="m 2048.61,1381.76 c 0,0 51.96,27.83 87.2,89.06 0,0 5.58,-89.06 -87.2,-89.06" /><path
         id="path26"
         style="fill:#4a261d;fill-opacity:1;fill-rule:nonzero;stroke:none"
         d="m 2109.84,1318.67 c 0,0 98.34,31.55 152.15,83.5 0,0 -29.69,-83.5 -152.15,-83.5" /><path
         id="path28"
         style="fill:#4a261d;fill-opacity:1;fill-rule:nonzero;stroke:none"
         d="m 1659.81,1336.42 c 0,0 122.46,159.56 378.51,185.54 l 24.11,16.7 c 0,0 -250.48,11.13 -391.48,-122.46 0,0 7.42,-42.67 -11.14,-79.78" /><path
         id="path30"
         style="fill:#4a261d;fill-opacity:1;fill-rule:nonzero;stroke:none"
         d="m 1401.16,1380.41 c 0,0 -176.26,161.41 -417.469,102.04 l -12.988,-16.7 c 0,0 231.937,44.54 421.177,-141.01 0,0 24.12,12.99 9.28,55.67" /><path
         id="path32"
         style="fill:#4a261d;fill-opacity:1;fill-rule:nonzero;stroke:none"
         d="m 973.035,1103.72 c 0,0 -137.051,1.87 -229.988,-64.77 0,0 43.183,17.83 92.937,27.22 0,0 -61.023,-37.55 -82.617,-67.588 0,0 70.403,49.748 114.531,60.078 0,0 -106.082,-96.691 -115.468,-125.781 0,0 142.687,149.251 220.605,170.841" /><path
         id="path34"
         style="fill:#4a261d;fill-opacity:1;fill-rule:nonzero;stroke:none"
         d="m 2236.09,908.859 c -112.71,13.922 -157.24,108.551 -157.24,108.551 l -11.14,-57.058 c 13.92,-20.883 32.01,-32.012 32.01,-32.012 -169.77,-269.949 -393.81,-253.258 -393.81,-253.258 0,0 -102.97,-70.973 -267.18,-61.23 -107.23,6.367 -188.92,50.878 -218.01,68.937 117.79,97.551 191.57,259.473 191.57,259.473 C 1363.59,888 1302.36,893.559 1302.36,893.559 1181.3,608.281 1018.49,612.461 1018.49,612.461 c 50.86,-6.781 98.52,5.648 141.9,29.09 80.41,-12.52 164.24,-44.403 226.86,-77.789 61.74,-32.942 148.89,-91.852 194.81,-104.371 202.57,-55.25 411.9,108.55 457.82,176.73 48.81,72.461 30.62,149.039 19.94,173.34 56.93,61.98 60.77,107.75 60.77,107.75 29.23,-8.352 115.5,-8.352 115.5,-8.352" /><path
         id="path36"
         style="fill:#ffffff;fill-opacity:1;fill-rule:nonzero;stroke:none"
         d="m 1513.88,574.891 c 0,0 113.54,1.398 260.22,59.839 171.16,68.192 204.56,97.411 204.56,97.411 0,0 40.23,-81.762 -192.04,-161.422 -288.06,-98.809 -272.74,4.172 -272.74,4.172" /><path
         id="path38"
         style="fill:#fcd31d;fill-opacity:1;fill-rule:nonzero;stroke:none"
         d="m 1937.09,609.629 c -16.07,-11.238 -26.04,-24.688 -22.29,-30.039 3.74,-5.36 19.8,-0.57 35.85,10.66 16.06,11.238 26.04,24.691 22.29,30.039 -3.75,5.359 -19.8,0.59 -35.85,-10.66 z m -188.04,-86.231 c 54.02,14.352 98.8,34.793 119.68,44.543 20.87,9.731 36.43,-4.929 12.52,-19.492 -32.01,-19.48 -58.61,-34.109 -114.11,-48.711 -79.32,-20.867 -154.47,-26.429 -157.25,-11.117 -2.9,15.969 50.1,11.117 139.16,34.777" /><path
         id="path40"
         style="fill:#4a261d;fill-opacity:1;fill-rule:nonzero;stroke:none"
         d="m 428.973,1371.82 -0.067,0.17 c 1.032,-0.19 1.746,-0.32 1.746,-0.32 -0.007,0.01 -1.679,0.15 -1.679,0.15 z m -62.664,9.58 c -66.692,-72.98 -90.196,-91.83 -97.606,-96.55 -54.426,-34.75 -81.375,-33.76 -87.09,-31.28 -0.105,0.51 -0.242,0.97 -0.242,1.76 0,7.23 5.258,25.31 26.43,48.92 v 0 c 47.015,52.44 107.469,75.83 158.508,77.15 z m 781.491,920.99 c 1.9,-2.89 3.62,-8.6 3.62,-17.34 0,-14.47 -4.71,-36.75 -21.09,-66.04 -24.1,-43.14 -73.14,-61.61 -111.68,-69.58 35.15,70.46 80.58,124.98 129.15,152.96 z m -30.83,165.01 c -139.267,-51 -249.56,-232.94 -285.126,-297.54 -59.746,9.83 -217.762,28.28 -418.524,-7.3 -241.992,-42.88 -300.683,-302.3 -303.062,-313.33 l -24.4963,-113.47 81.5113,82.65 c 170.762,173.13 280.778,184.35 377.844,194.25 l 39.004,4.36 c 65.223,8.58 142.227,7.31 189.852,5.26 -26.356,-62.23 -93.789,-202.27 -253.332,-455.83 -139.782,22.41 -257.539,9.87 -349.93,-37.49 -76.4688,-39.2 -131.629,-101.33 -155.3321,-174.93 -35.1367,-109.14 -3.4844,-173.86 29.25,-208.91 48.3125,-51.75 132.0121,-72.18 213.2341,-52.05 83.078,20.59 160.973,107.66 259.27,229.67 5.719,-2.3 12.496,-5.03 12.496,-5.03 106.371,-43.71 237.93,-94.73 527.751,-26.46 440.3,103.71 543.81,341.01 543.81,341.01 0,0 -212.88,-143.55 -429.5,-173.53 -227.854,-31.54 -338.967,0.97 -456.995,38.13 -14.41,4.54 -29.101,9.14 -44.078,13.65 111.969,187.22 253.035,417.55 289.422,476.87 53.381,5.87 209.931,33.59 290.221,160.51 37.81,59.74 64.14,134.52 64.14,198.96 0,37.29 -8.82,71.11 -29.34,96.56 -24.31,30.11 -73.21,58.73 -168.09,23.99" /><path
         id="path42"
         style="fill:#57c6bd;fill-opacity:1;fill-rule:nonzero;stroke:none"
         d="m 286.859,1256.4 c -132.347,-84.48 -177.402,-11.28 -104.187,70.38 73.211,81.66 177.406,104.2 247.801,78.85 0.836,-0.3 1.8,-0.21 2.711,-0.33 -65.454,-73.9 -121.793,-133.25 -146.325,-148.9 z m 844.781,1075.68 c 39.42,22.52 81.66,-33.8 28.15,-129.53 -53.5,-95.75 -195.767,-92.94 -195.767,-92.94 42.237,109.83 103.867,186.03 167.617,222.47 z m 45.05,-906.74 c -290.96,-43.64 -403.858,23.98 -557.549,64.77 132.617,222.74 321.015,529.39 321.015,529.39 0,0 194.294,8.45 281.594,146.43 87.29,137.98 92.92,337.92 -93.18,269.78 -155.933,-57.1 -278.531,-303.57 -278.531,-303.57 0,0 -182.805,41.15 -430.832,-2.81 C 196.746,2089.9 143.25,1842.11 143.25,1842.11 c 202.746,205.56 329.465,194.3 436.465,208.37 107.008,14.08 242.168,2.82 242.168,2.82 0,0 -36.602,-132.35 -285.567,-525.28 -6.238,1.73 -11.464,3.61 -15.738,4.33 -297.531,49.46 -436.7069,-75.72 -473.0702,-188.67 -59.7734,-185.64 89.5662,-245.77 202.2382,-217.85 78.797,19.53 160.262,116.98 256.758,237.56 111.68,-43.02 231.543,-116.53 542.756,-39.39 353.35,87.58 476.6,239.32 476.6,239.32 0,0 -180.22,-112.64 -349.17,-137.98" /><path
         id="path44"
         style="fill:#ffffff;fill-opacity:1;fill-rule:nonzero;stroke:none"
         d="m 1318.4,1199.9 c 0,0 -77.53,46.51 -136.74,25.37 -59.2,-21.14 -146.59,-78.94 -170.56,-118.41 0,0 29.6,7.06 54.97,8.46 25.38,1.41 125.46,-8.46 177.61,16.92 52.16,25.36 74.72,67.66 74.72,67.66" /><path
         id="path46"
         style="fill:#4a261d;fill-opacity:1;fill-rule:nonzero;stroke:none"
         d="m 1017.09,1117.6 c 0,0 44.53,98.33 241.21,133.58 0,0 25.05,2.79 48.23,22.27 0,0 5.57,-16.7 -14.84,-31.54 0,0 33.41,9.27 51.95,27.83 0,0 -5.56,-29.68 -27.82,-40.81 0,0 23.19,-9.28 59.36,11.13 0,0 -42.67,-115.05 -194.81,-122.46 0,0 85.34,7.41 128.03,77.92 0,0 -113.19,85.36 -291.31,-77.92" /><path
         id="path48"
         style="fill:#fbce28;fill-opacity:1;fill-rule:nonzero;stroke:none"
         d="m 1238.85,1204.02 h -43.61 v -41.47 h 43.61 v 41.47" /><path
         id="path50"
         style="fill:#4a261d;fill-opacity:1;fill-rule:nonzero;stroke:none"
         d="m 1234.56,1187.95 -19.15,14.54 -9.21,-20.96 11.35,-8.62 z m -33.43,-59.73 c -30.54,-2.68 -57.1,15.97 -59.34,41.63 -0.25,2.76 -0.19,5.48 0.13,8.16 3.38,-0.44 6.99,-0.7 10.74,-0.7 18.99,0 34.4,6.22 34.4,13.88 0,7.21 -13.62,13.12 -31.06,13.81 9.23,8.81 22.22,14.87 37,16.16 30.53,2.67 57.11,-15.97 59.35,-41.64 2.25,-25.66 -20.68,-48.62 -51.22,-51.3" /><path
         id="path52"
         style="fill:#a6292d;fill-opacity:1;fill-rule:nonzero;stroke:none"
         d="m 3033.83,605.648 c 0,0 72.66,77.524 147.75,75.09 93.14,-3 77.51,-152.59 12.11,-234.957 -65.39,-82.359 -208.31,-87.191 -208.31,-87.191 0,0 -48.45,-70.25 -82.34,-111.43 -33.92,-41.172 -140.5,-118.68 -140.5,-118.68 0,0 43.59,-43.6011 -62.97,-79.9292 C 2583.56,9 2510.79,12.7813 2437.97,34.0195 c -174.41,50.8594 -125.96,75.0825 -125.96,75.0825 0,0 -118.69,21.796 -220.42,188.937 -32.85,53.949 -153.5,203.852 -19.38,273.699 232.54,121.114 363.35,106.203 484.44,111.434 392.4,16.937 477.18,-77.524 477.18,-77.524 z m 128.55,-107.449 c 23.35,36.321 23.35,80.422 0,90.789 -23.35,10.371 -36.32,7.782 -77.81,-51.879 -41.5,-59.648 -36.32,-103.75 -36.32,-103.75 64.84,-5.187 90.78,28.532 114.13,64.84" /><path
         id="path54"
         style="fill:#4a261d;fill-opacity:1;fill-rule:nonzero;stroke:none"
         d="m 2658.5,181.07 c 0,0 -103.15,-50.539 -252.64,-44.218 -149.48,6.32 -183.18,80.019 -183.18,80.019 0,0 126.33,-98.973 435.82,-35.801" /><path
         id="path56"
         style="fill:#4a261d;fill-opacity:1;fill-rule:nonzero;stroke:none"
         d="m 2904.83,452.66 c -202.11,-58.949 -637.93,-54.738 -738.99,-35.781 -101.05,18.941 -113.69,54.742 -113.69,65.25 0,10.543 0,42.121 82.12,86.332 115.43,62.148 317.92,82.109 414.76,84.211 96.85,2.109 178.52,10.16 349.49,-27.363 107.3,-23.547 117.9,-67.379 117.9,-67.379 0,0 18.97,-65.258 -111.59,-105.27" /><path
         id="path58"
         style="fill:#57c6bd;fill-opacity:1;fill-rule:nonzero;stroke:none"
         d="m 2888,482.129 c 0,0 -48.43,42.121 -107.38,50.531 -58.94,8.43 -143.16,2.121 -143.16,2.121 0,0 120.01,-14.75 147.37,-33.691 27.38,-18.961 37.89,-35.801 37.89,-35.801 0,0 42.11,6.332 65.28,16.84" /><path
         id="path60"
         style="fill:#57c6bd;fill-opacity:1;fill-rule:nonzero;stroke:none"
         d="m 2119.54,458.98 c 0,0 115.77,116.211 431.59,126.329 328.45,10.523 404.24,-71.598 404.24,-71.598 0,0 31.57,2.121 31.57,33.687 0,31.59 -97.44,94.903 -437.91,90.532 -330.17,-4.231 -458.97,-122.098 -458.97,-138.942 0,-16.859 4.21,-40.008 29.48,-40.008" /><path
         id="path62"
         style="fill:#4a261d;fill-opacity:1;fill-rule:nonzero;stroke:none"
         d="m 2416.4,82.1094 c 0,0 -113.64,24.9106 -185.29,86.3206 -221.05,189.48 -197.91,332.66 -197.91,332.66 0,0 14.74,67.371 193.7,128.422 97.7,33.34 354.32,60.828 619,29.488 160,-18.961 193.69,-82.129 193.69,-82.129 0,0 50.53,88.43 128.44,88.43 77.89,0 88.42,-128.422 31.57,-189.481 -56.84,-61.058 -92.65,-88.429 -221.07,-105.261 0,0 -149.47,-221.079 -250.54,-254.758 0,0 105.27,-18.9612 269.49,229.488 0,0 147.37,8.41 223.16,109.481 75.8,101.062 51.69,229.062 -16.82,242.109 -44.22,8.441 -113.7,-18.938 -170.55,-75.789 0,0 -40.24,31.39 -84.47,44.031 -44.21,12.629 -238.34,38.777 -387.78,29.649 -227.34,-13.872 -284.91,-16.629 -462.54,-96.84 -73.52,-33.18 -98.95,-75.789 -98.95,-75.789 0,0 -14.75,-98.942 71.57,-223.161 86.33,-124.23 153.69,-189.5 345.3,-216.8706" /><path
         id="path64"
         style="fill:#4a261d;fill-opacity:1;fill-rule:nonzero;stroke:none"
         d="m 3153.28,501.09 c 18.96,29.48 18.96,65.262 0,73.691 -18.94,8.418 -29.47,6.321 -63.16,-42.121 -33.69,-48.41 -29.48,-84.211 -29.48,-84.211 52.63,-4.211 73.7,23.172 92.64,52.641 z m -117.89,-75.801 c 0,0 -10.54,65.27 44.2,130.543 54.75,65.258 90.53,61.047 111.58,48.418 21.08,-12.629 16.85,-84.199 -33.68,-132.629 -50.54,-48.422 -94.75,-50.531 -122.1,-46.332" /><path
         id="path66"
         style="fill:#4a261d;fill-opacity:1;fill-rule:nonzero;stroke:none"
         d="m 2786.77,101.84 c 0,0 -107.2,-100.67984 -265.1,-101.84 -131.72,-0.960938 -212.65,88.4297 -212.65,88.4297 0,0 25.26,-12.6406 75.78,-16.8281 0,0 61.06,-38.25 170.55,-37.9102 103.03,0.3281 231.42,68.1486 231.42,68.1486" /><path
         id="path68"
         style="fill:#4a261d;fill-opacity:1;fill-rule:nonzero;stroke:none"
         d="m 3048.42,1418.47 v 0 c 21.92,-303.28 -83.01,-424.861 -128.11,-464.63 -36.89,-32.539 -104.13,-74.43 -159.67,-96.969 -49.61,-20.152 -100.89,-40.98 -136.55,-72.25 -76.97,-67.531 -36.31,-181.031 -27.38,-203.101 5.27,-13.04 14,-19.34 25.96,-18.75 l 24.77,1.218 -0.71,24.801 c -2.06,70.891 24.29,104.051 117.52,147.82 15.23,7.172 33.08,14.571 51.96,22.43 105.89,44 250.89,104.25 327.65,266.091 84.17,177.45 67.04,308.5 43.31,489.87 l -4.74,36.47 c -24.26,190.77 125.2,312.39 129.79,315.73 0,0 -285.39,-20.59 -263.8,-448.73" /><path
         id="path70"
         style="fill:none;stroke:#4a261d;stroke-width:11.71829987;stroke-linecap:round;stroke-linejoin:round;stroke-miterlimit:4;stroke-dasharray:none;stroke-opacity:1"
         d="m 3048.42,1418.47 v 0 c 21.92,-303.28 -83.01,-424.861 -128.11,-464.63 -36.89,-32.539 -104.13,-74.43 -159.67,-96.969 -49.61,-20.152 -100.89,-40.98 -136.55,-72.25 -76.97,-67.531 -36.31,-181.031 -27.38,-203.101 5.27,-13.04 14,-19.34 25.96,-18.75 l 24.77,1.218 -0.71,24.801 c -2.06,70.891 24.29,104.051 117.52,147.82 15.23,7.172 33.08,14.571 51.96,22.43 105.89,44 250.89,104.25 327.65,266.091 84.17,177.45 67.04,308.5 43.31,489.87 l -4.74,36.47 c -24.26,190.77 125.2,312.39 129.79,315.73 0,0 -285.39,-20.59 -263.8,-448.73 z" /><path
         id="path72"
         style="fill:#57c6bd;fill-opacity:1;fill-rule:nonzero;stroke:none"
         d="m 2621.42,588.039 c 0,0 -51.67,115.223 19.37,177.551 71.05,62.32 211.26,86.512 284.89,156.762 78.79,75.168 172.2,162.818 147.98,497.948 -24.23,335.13 183.36,413.56 183.36,413.56 0,0 -124.9,-89.05 -99.7,-285.61 25.22,-196.57 50.1,-330.04 -36.33,-512.28 -86.43,-182.232 -269.11,-230.24 -367.49,-276.45 -98.4,-46.2 -134.55,-86.399 -132.08,-171.481" /><path
         id="path74"
         style="fill:#4a261d;fill-opacity:1;fill-rule:nonzero;stroke:none"
         d="m 2036.23,1970.7 c 0,86.21 82.43,159.02 129.04,170.51 11.84,2.92 20.93,3.86 27.99,3.36 -66,-136.03 -117.69,-192.22 -144.76,-198.88 -1.59,-0.4 -3.5,0.13 -5.24,1.43 -4.02,3 -6.52,9.42 -6.89,17.59 -0.08,2 -0.14,4 -0.14,5.99 z m 318.15,301.03 -111.48,-15.89 c 0,0 -12.79,-29.73 -19.04,-44.26 -92.51,18.13 -171.18,2.73 -234,-46.06 -79.84,-62 -112.42,-164.27 -116.33,-224.82 -19.34,-20.2 -34.3,-33.18 -45.31,-41.22 5.85,21.37 16.69,50.57 25.44,74.06 17.51,47 28.46,77.39 28.46,97.06 0,0.76 -0.01,1.49 -0.05,2.21 -1.13,25.63 -9.73,44.63 -25.53,56.46 -18.04,13.5 -42.91,16.11 -75.96,7.95 -53.41,-13.16 -97.66,-47.09 -133.58,-85.67 0.66,1.83 20.51,57.81 20.51,57.81 l -183.91,-45.33 c 0,0 -44.62,-181.31 -47.78,-194.19 -52.2,-51.68 -86.28,-79.3 -105.64,-92.21 0.59,2.42 1.21,4.92 1.99,7.67 0.03,0.09 73.74,264.29 73.74,264.29 l -166.98,-48.75 -4.58,-11.42 c -69.02,-172.02 -124.18,-270.43 -164.31,-293.56 1.48,8.59 3.85,18.75 7.41,29.39 -0.11,-0.32 77.64,221.48 77.64,221.48 l 16.21,46.22 -185.07,-53.14 -68.546,-230.6 c -1.903,-7.03 -16.192,-64.34 16.632,-97.91 20.176,-20.61 50.997,-26 91.624,-15.98 68.9,16.98 115.88,61.03 151.01,110.18 3.71,-14.93 10.84,-26.68 21.66,-34.77 23.63,-17.68 55.83,-12.75 81.24,-6.5 34.4,8.49 75.56,32.19 122.62,70.11 -0.03,-0.11 -11.37,-46.17 -11.37,-46.17 l 151.63,49.12 5.24,10.83 c 86.91,179.6 140.58,247.95 170.67,273.72 -4.27,-14.88 -10.56,-32.04 -16.8,-48.96 -14.65,-39.8 -31.18,-84.65 -31.18,-123.56 0,-1.96 0.05,-3.9 0.13,-5.82 1.1,-24.69 9.37,-42.97 24.57,-54.34 23.62,-17.68 55.82,-12.76 81.24,-6.48 55.14,13.59 95.53,43.4 130.05,76.1 29.01,-20.68 74.35,-25.53 128.02,-12.31 57.56,14.18 102.46,55.85 135.05,98.97 4.01,-12.48 10.48,-22.67 20.03,-29.82 23.64,-17.68 55.83,-12.76 81.25,-6.49 52.01,12.82 101.04,38.62 135.04,61.44 114.32,76.7 270.13,81.26 361.59,-7.8 51.27,-49.93 76.59,-121.97 69.33,-206.75 -8.97,-104.9 -53.18,-227.27 -160.79,-361.75 -13.87,-17.33 -46.01,-51.91 -84.21,-91.24 -91.77,-94.43 -230.43,-237.15 -293.1,-362.499 -94.71,-189.402 100.78,-383.89 109.15,-392.082 l 40.9,28.211 c -67.67,155.238 -39.91,210.59 13.82,283.32 35.76,48.379 103.7,123.59 169.4,196.34 68,75.28 130.46,147.6 154.41,181.21 323.4,453.32 235.95,685.84 128.59,788.28 -106.24,101.35 -236.73,139.53 -375.69,104.64 -48.03,-12.06 -89.31,-24.68 -133.2,-55.5 -19.83,-13.93 -59.68,-39.4 -86.94,-53.43 3.7,32.49 18.02,75.98 33.12,121.62 10.34,31.32 21.05,63.7 29.98,96.97 l 9.94,37.03 -37.96,-5.41" /><path
         id="path76"
         style="fill:none;stroke:#4a261d;stroke-width:11.71829987;stroke-linecap:round;stroke-linejoin:round;stroke-miterlimit:4;stroke-dasharray:none;stroke-opacity:1"
         d="m 2036.23,1970.7 c 0,86.21 82.43,159.02 129.04,170.51 11.84,2.92 20.93,3.86 27.99,3.36 -66,-136.03 -117.69,-192.22 -144.76,-198.88 -1.59,-0.4 -3.5,0.13 -5.24,1.43 -4.02,3 -6.52,9.42 -6.89,17.59 -0.08,2 -0.14,4 -0.14,5.99 z m 318.15,301.03 -111.48,-15.89 c 0,0 -12.79,-29.73 -19.04,-44.26 -92.51,18.13 -171.18,2.73 -234,-46.06 -79.84,-62 -112.42,-164.27 -116.33,-224.82 -19.34,-20.2 -34.3,-33.18 -45.31,-41.22 5.85,21.37 16.69,50.57 25.44,74.06 17.51,47 28.46,77.39 28.46,97.06 0,0.76 -0.01,1.49 -0.05,2.21 -1.13,25.63 -9.73,44.63 -25.53,56.46 -18.04,13.5 -42.91,16.11 -75.96,7.95 -53.41,-13.16 -97.66,-47.09 -133.58,-85.67 0.66,1.83 20.51,57.81 20.51,57.81 l -183.91,-45.33 c 0,0 -44.62,-181.31 -47.78,-194.19 -52.2,-51.68 -86.28,-79.3 -105.64,-92.21 0.59,2.42 1.21,4.92 1.99,7.67 0.03,0.09 73.74,264.29 73.74,264.29 l -166.98,-48.75 -4.58,-11.42 c -69.02,-172.02 -124.18,-270.43 -164.31,-293.56 1.48,8.59 3.85,18.75 7.41,29.39 -0.11,-0.32 77.64,221.48 77.64,221.48 l 16.21,46.22 -185.07,-53.14 -68.546,-230.6 c -1.903,-7.03 -16.192,-64.34 16.632,-97.91 20.176,-20.61 50.997,-26 91.624,-15.98 68.9,16.98 115.88,61.03 151.01,110.18 3.71,-14.93 10.84,-26.68 21.66,-34.77 23.63,-17.68 55.83,-12.75 81.24,-6.5 34.4,8.49 75.56,32.19 122.62,70.11 -0.03,-0.11 -11.37,-46.17 -11.37,-46.17 l 151.63,49.12 5.24,10.83 c 86.91,179.6 140.58,247.95 170.67,273.72 -4.27,-14.88 -10.56,-32.04 -16.8,-48.96 -14.65,-39.8 -31.18,-84.65 -31.18,-123.56 0,-1.96 0.05,-3.9 0.13,-5.82 1.1,-24.69 9.37,-42.97 24.57,-54.34 23.62,-17.68 55.82,-12.76 81.24,-6.48 55.14,13.59 95.53,43.4 130.05,76.1 29.01,-20.68 74.35,-25.53 128.02,-12.31 57.56,14.18 102.46,55.85 135.05,98.97 4.01,-12.48 10.48,-22.67 20.03,-29.82 23.64,-17.68 55.83,-12.76 81.25,-6.49 52.01,12.82 101.04,38.62 135.04,61.44 114.32,76.7 270.13,81.26 361.59,-7.8 51.27,-49.93 76.59,-121.97 69.33,-206.75 -8.97,-104.9 -53.18,-227.27 -160.79,-361.75 -13.87,-17.33 -46.01,-51.91 -84.21,-91.24 -91.77,-94.43 -230.43,-237.15 -293.1,-362.499 -94.71,-189.402 100.78,-383.89 109.15,-392.082 l 40.9,28.211 c -67.67,155.238 -39.91,210.59 13.82,283.32 35.76,48.379 103.7,123.59 169.4,196.34 68,75.28 130.46,147.6 154.41,181.21 323.4,453.32 235.95,685.84 128.59,788.28 -106.24,101.35 -236.73,139.53 -375.69,104.64 -48.03,-12.06 -89.31,-24.68 -133.2,-55.5 -19.83,-13.93 -59.68,-39.4 -86.94,-53.43 3.7,32.49 18.02,75.98 33.12,121.62 10.34,31.32 21.05,63.7 29.98,96.97 l 9.94,37.03 z" /><path
         id="path78"
         style="fill:#57c6bd;fill-opacity:1;fill-rule:nonzero;stroke:none"
         d="m 2054.57,1921.11 c -19.09,-4.71 -42.03,9.9 -43.49,42.48 -4.46,100.22 86.43,186.99 148.13,202.2 24.13,5.94 51.86,8.91 67.26,-10.46 -56.41,-120.74 -120.84,-221.63 -171.9,-234.22 z m 904.98,-21.28 c -65.15,163.36 -251.58,226.02 -373.89,214.75 -73.1,-6.74 -113.68,-28.53 -164.13,-59.81 -33.86,-20.98 -93.89,-61.28 -117.39,-67.08 -8.83,-2.17 -10.68,6.24 -11.02,13.75 -2.57,57.63 39.35,150.29 64.83,245.23 l -97.42,-13.88 c -7.01,-16.95 -14.25,-33.78 -21.66,-50.36 -262.92,64.43 -339.62,-167.87 -340.45,-252.4 -35.25,-37.9 -66.71,-63.38 -88.7,-68.79 -8.81,-2.18 -10.68,6.23 -11.01,13.75 -1.79,40.09 59.53,164.12 58.08,196.7 -1.45,32.56 -17.26,54 -70.15,40.96 -120.5,-29.69 -192.56,-179.18 -224.68,-225.09 l 65.99,185.98 -123.43,-30.43 -45.84,-186.26 c -51.58,-51.47 -120.96,-114.43 -145.7,-114.05 -9.07,0.14 -10.68,6.24 -11.01,13.75 -0.39,8.78 1.99,22.03 5.84,35.64 l 61.49,220.34 -111.46,-32.54 c -36.09,-89.96 -119.04,-295.32 -192.5,-313.43 -14.7,-3.62 -22.16,-2.92 -22.61,7.09 -0.55,12.53 2.85,36.17 10.72,59.64 l 77.76,221.82 -124.67,-35.8 -64.587,-217.3 c 0,0 -29.336,-108.56 77.927,-82.12 119.02,29.34 167.11,150.12 208.23,227.38 -9.69,-49.25 -30.05,-92.26 -28.77,-121.08 1.9,-42.59 28.9,-48.6 74.46,-37.37 54.4,13.4 122.4,69.88 172.59,118.05 l -19.84,-80.61 98.11,31.78 c 29.92,61.84 137.34,284.63 212.27,303.1 8.83,2.17 11.87,0.4 12.26,-8.38 2.13,-47.6 -56.02,-142.99 -53.11,-208.14 1.9,-42.59 28.91,-48.6 74.46,-37.38 58.37,14.4 98.32,48.4 136.29,87.17 19.69,-31.82 71.1,-35.85 121.78,-23.37 120.49,29.7 182.61,201.41 182.61,201.41 -6,-31.88 -21.79,-77.56 -20.72,-101.37 1.88,-42.6 28.89,-48.61 74.45,-37.38 53.05,13.07 89.35,32.69 125.69,56.96 118.32,78.98 221.53,82.98 315.93,51.34 175.76,-58.92 264.7,-312.09 -9.9,-662.58 -48.72,-62.18 -287.64,-275.13 -375.18,-450.201 -87.54,-175.078 104.21,-362.68 104.21,-362.68 -70.86,162.582 -43.2,227.473 16.67,308.492 73.96,100.059 277.3,313.629 322.83,376.099 214.78,294.58 250.09,508.95 194.35,648.7" /><path
         id="path80"
         style="fill:#4a261d;fill-opacity:1;fill-rule:nonzero;stroke:none"
         d="m 385.297,805.262 -19.492,-23.211 -2.227,1.59 c 1.008,1.988 1.352,3.468 1.039,4.429 -0.312,0.969 -2.566,3.239 -6.762,6.809 -8.671,7.402 -15.019,13.941 -19.039,19.609 -4.015,5.66 -7.433,12.852 -10.25,21.551 -5.609,17.359 -5.828,33.012 -0.648,46.961 2.98,8.211 7.648,15.41 14,21.621 7.246,7.141 16.09,12.41 26.523,15.777 14.219,4.602 27.829,4.692 40.836,0.301 19.551,-6.609 33.153,-21.758 40.809,-45.449 2.816,-8.711 4.254,-16.488 4.312,-23.352 0.059,-6.867 -1.273,-15.898 -4.003,-27.109 -1.258,-5.328 -1.735,-8.469 -1.426,-9.449 0.316,-0.961 1.461,-1.961 3.441,-2.981 l -0.879,-2.597 -29.441,7.398 0.844,2.68 c 0.953,0.191 1.742,0.379 2.375,0.59 1.66,0.539 3,1.711 4.027,3.519 1.023,1.821 2.016,4.781 2.969,8.891 2.656,11.359 2.254,22.371 -1.184,33 -4.062,12.582 -10.652,21.519 -19.773,26.808 -10.696,6.282 -22.379,7.372 -35.039,3.274 -12.668,-4.09 -21.5,-11.813 -26.496,-23.16 -4.293,-9.641 -4.403,-20.75 -0.34,-33.321 3.437,-10.632 9.562,-19.793 18.367,-27.441 3.172,-2.781 5.703,-4.602 7.598,-5.469 1.902,-0.871 3.675,-1.043 5.335,-0.5 0.633,0.199 1.36,0.5 2.192,0.891 l 2.332,-1.66" /><path
         id="path82"
         style="fill:#4a261d;fill-opacity:1;fill-rule:nonzero;stroke:none"
         d="m 483.379,736.68 c -4.816,9.922 -11.969,16.66 -21.445,20.218 -11.207,4.243 -22.809,3.442 -34.805,-2.386 -11.996,-5.832 -19.797,-14.453 -23.395,-25.883 -3.062,-9.649 -2.152,-19.488 2.711,-29.5 4.864,-10.02 12.028,-16.777 21.481,-20.297 5.629,-2.102 11.652,-2.891 18.07,-2.344 5.695,0.5 11.113,2 16.242,4.492 12.539,6.102 20.5,14.801 23.883,26.129 2.926,9.653 2.012,19.5 -2.742,29.571 z m 18.851,9.261 c 8.805,-18.14 10.563,-35.043 5.27,-50.742 -5.488,-16.539 -16.898,-29.019 -34.23,-37.429 -10.614,-5.161 -21.836,-7.282 -33.657,-6.372 -23.086,1.782 -40.453,14.661 -52.097,38.633 -8.735,17.969 -10.453,34.821 -5.153,50.508 2.813,8.402 7.407,15.961 13.774,22.699 5.617,5.922 12.222,10.731 19.804,14.422 11.098,5.391 22.547,7.649 34.344,6.801 22.567,-1.672 39.879,-14.512 51.945,-38.52" /><path
         id="path84"
         style="fill:#4a261d;fill-opacity:1;fill-rule:nonzero;stroke:none"
         d="m 498.258,606.082 -37.125,-24.57 c -1.559,-1.043 -2.531,-2.172 -2.903,-3.403 -0.378,-1.238 -0.242,-2.839 0.403,-4.789 l -2.375,-1.57 -19.953,30.141 2.367,1.57 c 1.629,-1.371 3.066,-2.121 4.308,-2.262 1.243,-0.117 2.649,0.332 4.208,1.36 l 87.058,57.64 c 1.555,1.031 2.516,2.141 2.883,3.34 0.363,1.191 0.238,2.813 -0.391,4.84 l 2.371,1.57 56.442,-85.238 c 0.933,-1.41 1.996,-2.262 3.191,-2.551 1.196,-0.289 2.867,-0.058 5.024,0.68 l 1.504,-2.27 -26.633,-17.629 -1.504,2.27 c 1.535,1.699 2.402,3.148 2.597,4.359 0.192,1.211 -0.175,2.52 -1.109,3.93 l -39.484,59.648 -24.574,-16.269 25.839,-39.027 c 0.969,-1.461 2.063,-2.321 3.278,-2.59 1.222,-0.282 2.883,-0.063 4.992,0.648 l 1.5,-2.269 -26.012,-17.219 -1.504,2.269 c 1.485,1.661 2.336,3.098 2.555,4.329 0.223,1.23 -0.152,2.57 -1.113,4.039 l -25.84,39.023" /><path
         id="path86"
         style="fill:#4a261d;fill-opacity:1;fill-rule:nonzero;stroke:none"
         d="M 576.707,497.289 542.91,468.48 c -1.418,-1.21 -2.242,-2.46 -2.469,-3.73 -0.222,-1.262 0.102,-2.82 0.981,-4.68 l -2.168,-1.851 -23.418,27.461 2.168,1.851 c 1.773,-1.16 3.289,-1.722 4.539,-1.699 1.238,0.02 2.578,0.637 4.004,1.848 L 606,555.441 c 1.422,1.207 2.242,2.43 2.457,3.649 0.223,1.23 -0.098,2.82 -0.957,4.762 l 2.168,1.847 66.375,-77.84 c 1.102,-1.289 2.258,-2 3.48,-2.148 1.223,-0.152 2.864,0.289 4.915,1.289 l 1.757,-2.07 -24.359,-20.77 -1.758,2.07 c 1.32,1.872 2.012,3.418 2.059,4.649 0.047,1.23 -0.477,2.492 -1.574,3.769 l -46.489,54.512 -22.398,-19.101 30.402,-35.649 c 1.141,-1.34 2.328,-2.058 3.574,-2.191 1.246,-0.117 2.875,0.301 4.883,1.261 l 1.758,-2.058 -23.848,-20.332 -1.757,2.058 c 1.277,1.832 1.949,3.383 2.023,4.633 0.066,1.239 -0.465,2.52 -1.598,3.86 l -30.406,35.648" /><path
         id="path88"
         style="fill:#4a261d;fill-opacity:1;fill-rule:nonzero;stroke:none"
         d="M 668.035,398.98 645.184,374 700.039,323.809 c 1.25,-1.137 2.488,-1.707 3.719,-1.707 1.23,0.007 2.777,0.617 4.648,1.828 l 1.965,-1.801 -21.441,-23.43 -1.957,1.801 c 1.035,1.961 1.504,3.551 1.402,4.789 -0.105,1.231 -0.777,2.41 -2.027,3.563 l -77.465,70.859 1.984,2.168 c 1.91,-0.938 3.488,-1.32 4.727,-1.16 1.23,0.179 2.48,0.961 3.742,2.34 l 70.34,76.882 c 1.262,1.379 1.922,2.688 1.984,3.93 0.059,1.25 -0.457,2.789 -1.562,4.609 l 1.988,2.168 75.91,-69.457 c 1.25,-1.132 2.492,-1.703 3.742,-1.679 1.239,0.019 2.782,0.617 4.629,1.797 l 1.961,-1.789 -21.433,-23.43 -1.965,1.789 c 1.015,1.961 1.484,3.551 1.386,4.781 -0.097,1.238 -0.761,2.43 -2.011,3.57 L 700.996,435 681.258,413.43 715.879,381.75 c 1.25,-1.141 2.488,-1.711 3.719,-1.699 1.23,0 2.785,0.609 4.648,1.828 l 1.965,-1.797 -20.961,-22.922 -1.961,1.789 c 0.992,1.93 1.445,3.512 1.363,4.75 -0.078,1.262 -0.742,2.461 -1.996,3.602 l -34.621,31.679" /><path
         id="path90"
         style="fill:#4a261d;fill-opacity:1;fill-rule:nonzero;stroke:none"
         d="m 775.125,308.641 -19.441,-27.551 60.671,-42.82 c 1.387,-0.961 2.696,-1.36 3.918,-1.188 1.219,0.168 2.696,0.988 4.415,2.438 l 2.167,-1.532 -18.429,-26.117 -2.168,1.539 c 0.801,2.102 1.074,3.762 0.82,4.969 -0.242,1.211 -1.062,2.312 -2.449,3.281 l -85.754,60.5 1.672,2.379 c 2.012,-0.68 3.621,-0.867 4.824,-0.527 1.199,0.328 2.332,1.258 3.418,2.777 l 60.059,85.141 c 1.074,1.511 1.57,2.91 1.472,4.152 -0.097,1.238 -0.8,2.688 -2.109,4.359 l 1.672,2.368 84.101,-59.329 c 1.387,-0.988 2.696,-1.378 3.934,-1.191 1.23,0.18 2.695,0.992 4.395,2.422 l 2.167,-1.52 -18.417,-26.132 -2.168,1.543 c 0.773,2.078 1.046,3.73 0.8,4.957 -0.242,1.222 -1.054,2.312 -2.429,3.293 l -59.024,41.636 -16.828,-23.84 38.281,-27 c 1.379,-0.976 2.688,-1.386 3.918,-1.199 1.219,0.16 2.696,0.973 4.403,2.43 l 2.168,-1.52 -17.989,-25.5 -2.168,1.532 c 0.762,2.05 1.028,3.699 0.801,4.929 -0.234,1.239 -1.043,2.36 -2.422,3.321 l -38.281,27" /><path
         id="path92"
         style="fill:#4a261d;fill-opacity:1;fill-rule:nonzero;stroke:none"
         d="m 940.867,225.75 35.129,-16.578 c 5.195,-2.453 8.934,-4.012 11.231,-4.711 2.293,-0.672 4.57,-0.922 6.843,-0.731 4.914,0.399 8.75,3.52 11.51,9.34 2.74,5.821 2.71,10.762 -0.1,14.809 -1.33,1.973 -2.95,3.582 -4.87,4.851 -1.919,1.27 -5.524,3.149 -10.817,5.661 l -35.125,16.578 z m -8.672,-18.371 -17.5,-37.047 c -0.769,-1.633 -1.004,-3.07 -0.703,-4.32 0.313,-1.242 1.242,-2.532 2.774,-3.852 l -1.219,-2.59 -32.52,15.352 1.219,2.578 c 2.082,-0.301 3.684,-0.191 4.797,0.34 1.121,0.539 2.07,1.621 2.84,3.269 l 44.609,94.473 c 0.793,1.68 1.047,3.117 0.754,4.328 -0.293,1.219 -1.23,2.512 -2.785,3.922 l 1.211,2.578 65.248,-30.808 c 7.95,-3.75 14.02,-7.223 18.21,-10.391 4.2,-3.191 7.45,-6.82 9.77,-10.902 2.68,-4.739 3.87,-9.977 3.58,-15.758 -0.33,-5.571 -1.75,-11.02 -4.27,-16.352 -8.57,-18.168 -23.05,-24.34 -43.425,-18.508 l 5.731,-40.461 c 1.027,-7.089 2.004,-11.789 2.922,-14.14 0.925,-2.328 2.558,-4.149 4.882,-5.449 l -1.222,-2.582 -37.774,17.832 1.231,2.589 c 2.804,-0.789 4.562,-0.421 5.285,1.102 0.469,0.988 0.39,3.93 -0.235,8.809 L 960,194.25 932.195,207.379" /><path
         id="path94"
         style="fill:#4a261d;fill-opacity:1;fill-rule:nonzero;stroke:none"
         d="m 1115.65,191.59 c -10.5,3.289 -20.31,2.699 -29.4,-1.758 -10.76,-5.273 -18.14,-14.273 -22.12,-27.012 -3.98,-12.73 -3.06,-24.32 2.79,-34.781 4.93,-8.848 12.71,-14.93 23.33,-18.258 10.63,-3.312 20.45,-2.742 29.5,1.739 5.39,2.66 10.08,6.511 14.09,11.562 3.53,4.5 6.15,9.469 7.86,14.918 4.16,13.309 3.28,25.082 -2.64,35.309 -5.02,8.75 -12.81,14.839 -23.41,18.281 z m 6.18,20.051 c 19.25,-6.02 32.78,-16.34 40.57,-30.95 8.28,-15.339 9.55,-32.191 3.8,-50.589 -3.53,-11.262 -9.67,-20.883 -18.44,-28.872 -17.13,-15.5894 -38.41,-19.398 -63.84,-11.4409 -19.1,5.9609 -32.53,16.2619 -40.33,30.8709 -4.19,7.801 -6.55,16.328 -7.09,25.582 -0.47,8.168 0.56,16.27 3.08,24.317 3.68,11.781 9.88,21.671 18.6,29.671 16.67,15.282 37.89,19.09 63.65,11.411" /><path
         id="path96"
         style="fill:#4a261d;fill-opacity:1;fill-rule:nonzero;stroke:none"
         d="m 1257.26,100.98 -10.9,46.168 -26.01,-39.796 z m 4.3,-17.8589 -51.49,8.8906 -10.68,-15.8008 c -1.47,-2.1796 -2.32,-3.9726 -2.56,-5.3398 -0.44,-2.6094 1.11,-4.75 4.66,-6.4102 l -0.49,-2.8906 -37.68,6.5117 0.5,2.8868 c 2.3,0.0898 4.14,0.6328 5.51,1.6132 1.37,0.9883 3.11,3.0664 5.2,6.25 l 57.97,86.066 c 1.84,2.743 2.92,4.993 3.23,6.774 0.47,2.738 -0.81,4.957 -3.83,6.707 l 0.5,2.891 40.36,-6.961 -0.5,-2.899 c -3.44,-0.441 -5.39,-1.91 -5.82,-4.398 -0.3,-1.723 -0.1,-3.774 0.57,-6.141 l 27.23,-101.0507 c 1.14,-4.289 2.29,-7.289 3.42,-8.9805 1.15,-1.6914 2.85,-2.9804 5.09,-3.8593 l -0.5,-2.8907 -42.01,7.2618 0.5,2.8867 c 3.79,0.0234 5.95,1.543 6.47,4.582 0.21,1.25 -0.02,3.1797 -0.72,5.8086 l -4.93,18.4922" /><path
         id="path98"
         style="fill:#4a261d;fill-opacity:1;fill-rule:nonzero;stroke:none"
         d="m 1439.91,150.711 -15.04,-28.41 -2.3,1.539 c 0.08,0.601 0.12,1.07 0.14,1.441 0.09,2.051 -1.45,4.309 -4.62,6.789 -9.71,7.891 -21.33,12.129 -34.87,12.719 -5.99,0.262 -11.31,-0.301 -15.96,-1.66 -3.38,-1.059 -6.16,-2.75 -8.33,-5.047 -2.16,-2.32 -3.31,-4.883 -3.42,-7.711 -0.21,-4.633 2.28,-7.891 7.46,-9.789 2.67,-0.973 8.44,-2.121 17.31,-3.461 l 13.23,-2.012 c 7.87,-1.25 14.2,-2.75 19.02,-4.527 4.81,-1.773 9.04,-4.152 12.7,-7.141 3.71,-3.109 6.58,-7.1207 8.61,-12.0113 2.02,-4.8984 2.91,-10.0899 2.67,-15.5586 -0.37,-8.6602 -3.33,-16.2422 -8.85,-22.7422 -5.01,-5.9297 -12.57,-10.1484 -22.68,-12.668 -7.54,-1.8906 -15.58,-2.6718 -24.09,-2.3007 -15.29,0.6601 -30.21,5.2187 -44.77,13.6992 -3.08,1.6992 -4.94,2.5625 -5.56,2.5898 -0.74,0.0196 -1.92,-0.5898 -3.56,-1.8398 l -2.39,1.4609 13.83,29.6914 2.39,-1.3711 c -0.02,-0.539 -0.04,-0.9297 -0.05,-1.1718 -0.12,-2.7071 0.99,-5.25 3.32,-7.6368 3.52,-3.6523 9.05,-6.9023 16.61,-9.7617 7.56,-2.8594 14.79,-4.4297 21.66,-4.7305 7.51,-0.3203 13.97,0.75 19.39,3.2305 2.99,1.3594 5.43,3.2617 7.27,5.668 1.86,2.4101 2.84,4.9726 2.96,7.6836 0.18,4.0664 -1.76,7.0586 -5.8,8.9765 -2.82,1.3204 -8.58,2.6914 -17.28,4.0821 l -12.96,2 c -8.7,1.3398 -14.85,2.5195 -18.41,3.5586 -3.59,1.0195 -7.13,2.582 -10.66,4.6601 -5.02,2.9298 -8.87,7.1718 -11.57,12.7108 -2.44,4.988 -3.52,10.649 -3.25,16.969 0.45,10.41 4.17,18.883 11.18,25.402 9.2,8.578 22.6,12.5 40.21,11.739 7.39,-0.321 14.22,-1.411 20.53,-3.29 6.3,-1.871 14.12,-5.171 23.47,-9.871 3.21,-1.527 5.19,-2.32 5.92,-2.339 1.18,-0.059 2.59,0.57 4.23,1.902 l 2.31,-1.461" /><path
         id="path100"
         style="fill:#4a261d;fill-opacity:1;fill-rule:nonzero;stroke:none"
         d="m 1528.13,146.781 7.5,-93.2497 c 0.15,-1.8594 0.65,-3.2422 1.52,-4.1329 0.86,-0.9101 2.31,-1.5781 4.38,-2.0078 l 0.23,-2.9023 -35.92,-2.8867 -0.24,2.8984 c 1.97,0.7695 3.31,1.6484 4.01,2.6797 0.7,1.0312 0.98,2.4609 0.84,4.332 l -7.5,93.2383 -35.73,-2.871 c -1.69,-0.129 -2.95,-0.66 -3.78,-1.559 -0.83,-0.879 -1.45,-2.461 -1.83,-4.699 l -2.69,-0.223 -2.54,31.793 2.67,0.207 c 0.79,-2.128 1.66,-3.589 2.6,-4.347 0.94,-0.762 2.26,-1.082 3.93,-0.942 l 96.58,7.77 c 1.75,0.133 3.03,0.652 3.86,1.562 0.83,0.911 1.45,2.469 1.84,4.707 l 2.68,0.223 2.55,-31.801 -2.68,-0.211 c -0.74,2.153 -1.59,3.602 -2.56,4.36 -0.97,0.75 -2.31,1.07 -4.06,0.922 l -35.66,-2.86" /><path
         id="path102"
         style="fill:#4a261d;fill-opacity:1;fill-rule:nonzero;stroke:none"
         d="m 1635.17,112.102 6.98,-32.9223 72.69,15.3789 c 1.65,0.3516 2.84,1.043 3.55,2.0508 0.7,1.0195 1.11,2.6523 1.22,4.9026 l 2.67,0.558 6.63,-31.2809 -2.69,-0.5586 c -1.01,2.0078 -2.03,3.3398 -3.09,3.9804 -1.06,0.6407 -2.42,0.7891 -4.07,0.4297 l -102.64,-21.7304 -0.58,2.8007 c 1.84,1 3.06,2.0586 3.62,3.1602 0.57,1.0977 0.67,2.5781 0.28,4.3906 l -21.62,102.0903 c -0.39,1.839 -1.06,3.136 -2.03,3.918 -0.96,0.769 -2.5,1.261 -4.6,1.429 l -0.59,2.781 100.67,21.321 c 1.66,0.347 2.83,1.031 3.55,2.07 0.7,1.027 1.1,2.641 1.21,4.859 l 2.69,0.579 6.61,-31.278 -2.67,-0.57 c -1,1.98 -2.03,3.301 -3.1,3.961 -1.05,0.648 -2.42,0.808 -4.07,0.457 l -70.73,-14.988 6.05,-28.59 45.86,9.719 c 1.65,0.339 2.83,1.019 3.55,2.039 0.7,1.011 1.1,2.652 1.21,4.89 l 2.68,0.571 6.47,-30.551 -2.69,-0.578 c -0.98,1.961 -2.01,3.281 -3.07,3.941 -1.07,0.668 -2.44,0.828 -4.09,0.488 l -45.86,-9.718" /><path
         id="path104"
         style="fill:#4a261d;fill-opacity:1;fill-rule:nonzero;stroke:none"
         d="m 1770,163.832 36.69,13.18 c 5.42,1.957 9.19,3.5 11.3,4.648 2.12,1.141 3.91,2.578 5.38,4.34 3.2,3.77 3.72,8.699 1.54,14.762 -2.19,6.07 -5.71,9.527 -10.58,10.398 -2.33,0.461 -4.62,0.449 -6.89,-0.019 -2.27,-0.45 -6.16,-1.68 -11.7,-3.672 l -36.69,-13.188 z m 6.86,-19.102 13.86,-38.558 c 0.61,-1.711 1.47,-2.891 2.57,-3.551 1.1,-0.66 2.67,-0.922 4.69,-0.762 l 0.96,-2.6871 L 1765.1,87 l -0.97,2.6797 c 1.69,1.25 2.73,2.4609 3.15,3.6289 0.41,1.1719 0.31,2.6133 -0.3,4.3125 l -35.34,98.3279 c -0.63,1.762 -1.48,2.961 -2.54,3.602 -1.06,0.64 -2.65,0.91 -4.76,0.781 l -0.95,2.699 68.04,24.449 c 8.29,2.981 15.04,4.84 20.27,5.559 5.22,0.731 10.11,0.481 14.63,-0.777 5.26,-1.442 9.82,-4.301 13.71,-8.602 3.72,-4.172 6.58,-9.031 8.57,-14.578 6.8,-18.91 0.92,-33.531 -17.63,-43.844 l 32.61,-24.519 c 5.74,-4.278 9.75,-6.918 12.05,-7.93 2.31,-0.988 4.74,-1.129 7.3,-0.398 l 0.97,-2.68 -39.35,-14.141 -0.96,2.668 c 2.54,1.434 3.53,2.942 2.96,4.543 -0.37,1.008 -2.51,3.039 -6.4,6.059 l -34.3,26.32 -29,-10.43" /><path
         id="path106"
         style="fill:#4a261d;fill-opacity:1;fill-rule:nonzero;stroke:none"
         d="m 1954.78,291.961 0.99,-32.152 -2.77,0.203 c -0.24,0.558 -0.42,1.008 -0.59,1.328 -0.94,1.82 -3.4,3.031 -7.38,3.621 -12.35,2.059 -24.53,0.008 -36.58,-6.16 -5.36,-2.742 -9.71,-5.86 -13.09,-9.352 -2.43,-2.597 -4.01,-5.437 -4.76,-8.539 -0.74,-3.09 -0.46,-5.89 0.82,-8.41 2.12,-4.121 5.9,-5.738 11.34,-4.84 2.81,0.488 8.39,2.332 16.77,5.551 l 12.5,4.777 c 7.45,2.801 13.7,4.621 18.77,5.461 5.06,0.832 9.92,0.86 14.58,0.063 4.77,-0.883 9.25,-2.961 13.44,-6.223 4.18,-3.269 7.52,-7.348 10.02,-12.238 3.95,-7.711 5.14,-15.77 3.56,-24.172 -1.42,-7.641 -5.9,-15.047 -13.44,-22.231 -5.6,-5.386 -12.2,-10.019 -19.78,-13.898 -13.6,-6.969 -28.83,-10.371 -45.67,-10.191 -3.52,-0.047 -5.56,-0.207 -6.11,-0.5 -0.65,-0.329 -1.38,-1.45 -2.18,-3.348 l -2.8,0.09 -2.67,32.66 2.76,-0.012 c 0.24,-0.488 0.43,-0.828 0.54,-1.051 1.23,-2.406 3.45,-4.078 6.65,-5.007 4.86,-1.442 11.29,-1.532 19.25,-0.282 7.98,1.25 15.04,3.45 21.17,6.582 6.68,3.418 11.74,7.551 15.23,12.391 1.92,2.68 3.1,5.52 3.52,8.547 0.41,3.019 0,5.742 -1.24,8.152 -1.87,3.649 -5.04,5.301 -9.51,4.981 -3.1,-0.242 -8.79,-1.903 -17.04,-4.981 l -12.26,-4.66 c -8.23,-3.141 -14.15,-5.141 -17.76,-6.012 -3.61,-0.867 -7.47,-1.269 -11.56,-1.187 -5.81,0.066 -11.26,1.848 -16.35,5.34 -4.6,3.148 -8.33,7.527 -11.23,13.168 -4.75,9.281 -5.7,18.5 -2.82,27.64 3.75,12.012 13.47,22.051 29.16,30.102 6.58,3.379 13.08,5.797 19.47,7.289 6.41,1.469 14.84,2.469 25.29,2.988 3.55,0.262 5.65,0.539 6.3,0.883 1.05,0.539 1.96,1.789 2.73,3.75 l 2.73,-0.121" /></g></g></svg>